<svg width="200" height="100" viewBox="0 0 200 100" fill="none" xmlns="http://www.w3.org/2000/svg">
<rect width="200" height="100" fill="black"/>
<g clip-path="url(#clip0_805_6661)">
<g clip-path="url(#clip1_805_6661)">
<path d="M44 39.4519C44 38.8174 44.3347 38.2297 44.8809 37.9052L52.0941 33.6195C53.2961 32.9053 54.8197 33.7699 54.8197 35.1662V64.8339C54.8197 66.2302 53.2961 67.0947 52.0941 66.3805L44.8809 62.0948C44.3347 61.7703 44 61.1826 44 60.5481V39.4519Z" fill="#C61F1F"/>
<path d="M59.3279 39.6247C59.3279 38.9 59.7633 38.246 60.4326 37.9652L72.1539 33.0493C73.3424 32.5508 74.6557 33.422 74.6557 34.7087V65.2913C74.6557 66.578 73.3424 67.4492 72.1539 66.9507L60.4326 62.0348C59.7633 61.754 59.3279 61.1 59.3279 60.3753V39.6247Z" fill="#C61F1F"/>
<path d="M79.1639 39.7367C79.1639 38.9567 79.6672 38.2655 80.4104 38.0246L96.64 32.7649C97.8049 32.3873 99 33.2542 99 34.4769V65.5231C99 66.7458 97.8049 67.6127 96.64 67.2351L80.4104 61.9754C79.6672 61.7345 79.1639 61.0433 79.1639 60.2633V39.7367Z" fill="#C61F1F"/>
</g>
<g clip-path="url(#clip2_805_6661)">
<path d="M142.555 66V52H146.235V57.48L151.055 52H155.515L150.315 57.82L155.835 66H151.395L147.735 60.48L146.235 62.16V66H142.555Z" fill="#C61F1F"/>
<path d="M134.59 66.12C130.37 66.12 127.83 63.32 127.83 59C127.83 54.68 130.45 51.88 134.79 51.88C138.23 51.88 140.63 54.1 140.89 57.22H137.21C136.95 55.88 136.03 54.92 134.59 54.92C132.67 54.92 131.59 56.6 131.59 59C131.59 61.4 132.67 63.08 134.59 63.08C136.03 63.08 136.95 62.12 137.21 60.78H140.89C140.63 63.9 138.15 66.12 134.59 66.12Z" fill="#C61F1F"/>
<path d="M122 66V52H125.68V66H122Z" fill="#C61F1F"/>
<path d="M109 55.12V52H120.24V55.12H116.46V66H112.78V55.12H109Z" fill="#C61F1F"/>
<path d="M138.148 48H128.348V34H132.028V44.88H138.148V48Z" fill="#C61F1F"/>
<path d="M122 48V34H125.68V48H122Z" fill="#C61F1F"/>
<path d="M109.1 48V34H114.64C118 34 120 35.32 120 37.7C120 39.54 118.88 40.56 117.12 40.82C119.18 41.04 120.46 42.04 120.46 44.02C120.46 46.46 118.46 48 114.94 48H109.1ZM114.7 36.78H112.78V39.58H114.7C115.72 39.58 116.32 39.02 116.32 38.18C116.32 37.34 115.72 36.78 114.7 36.78ZM114.98 42.32H112.78V45.2H114.98C116.04 45.2 116.68 44.66 116.68 43.76C116.68 42.86 116.04 42.32 114.98 42.32Z" fill="#C61F1F"/>
<path d="M146.857 37.1709C146.632 37.6152 146.163 37.917 145.625 37.917C145.077 37.917 144.599 37.6045 144.379 37.1465L141.75 36.2881V45.7109L144.379 44.8525C144.599 44.395 145.077 44.083 145.625 44.083C146.163 44.083 146.632 44.3843 146.857 44.8281L153.25 45.7656V44.0635C152.136 43.4691 151.375 42.3237 151.375 41C151.375 39.676 152.136 38.5298 153.25 37.9355V36.2334L146.857 37.1709ZM155.25 46.7773C155.25 47.3231 154.793 47.75 154.25 47.75H140.75C140.207 47.75 139.75 47.3231 139.75 46.7773V35.2227C139.75 34.6769 140.207 34.25 140.75 34.25H154.25C154.793 34.25 155.25 34.6769 155.25 35.2227V39.4443H155C154.094 39.4443 153.375 40.1497 153.375 41C153.375 41.8503 154.094 42.5557 155 42.5557H155.25V46.7773Z" fill="#C61F1F" stroke="#C61F1F" stroke-width="0.5"/>
</g>
</g>
<defs>
<clipPath id="clip0_805_6661">
<rect width="112" height="36" fill="white" transform="translate(44 32)"/>
</clipPath>
<clipPath id="clip1_805_6661">
<rect width="55" height="36" fill="white" transform="translate(44 32)"/>
</clipPath>
<clipPath id="clip2_805_6661">
<rect width="46.8355" height="32.12" fill="white" transform="translate(109 34)"/>
</clipPath>
</defs>
</svg>
